<?xml version="1.0" encoding="UTF-8" standalone="no"?>
<svg
   xmlns:dc="http://purl.org/dc/elements/1.1/"
   xmlns:cc="http://creativecommons.org/ns#"
   xmlns:rdf="http://www.w3.org/1999/02/22-rdf-syntax-ns#"
   xmlns:svg="http://www.w3.org/2000/svg"
   xmlns="http://www.w3.org/2000/svg"
   width="844.88684mm"
   height="212.06914mm"
   viewBox="0 0 844.88684 212.06914"
   version="1.1"
   id="svg1345">
  <defs
     id="defs1339" />
  <metadata
     id="metadata1342">
    <rdf:RDF>
      <cc:Work
         rdf:about="">
        <dc:format>image/svg+xml</dc:format>
        <dc:type
           rdf:resource="http://purl.org/dc/dcmitype/StillImage" />
        <dc:title></dc:title>
      </cc:Work>
    </rdf:RDF>
  </metadata>
  <path
     id="path1101"
     style="fill:#66acac;fill-opacity:1;stroke:none;stroke-width:0.264583px;stroke-linecap:butt;stroke-linejoin:miter;stroke-opacity:1"
     d="m 117.5327,177.25419 c -0.58348,0.004 -1.17147,0.0168 -1.76424,0.0393 -29.021544,1.09868 -48.306654,24.04463 -55.774884,34.77565 H 171.91233 c -3.57709,-6.31039 -21.64887,-35.02376 -54.37963,-34.81493 z" />
  <path
     id="path1160"
     style="fill:#f7fdf6;fill-opacity:1;stroke:none;stroke-width:0.264583px;stroke-linecap:butt;stroke-linejoin:miter;stroke-opacity:1"
     d="m 132.40673,187.53057 -35.384934,0.32401 0.52761,1.34824 0.65733,2.71042 c 0,0 -8.67542,8.27807 -10.14666,20.15588 h 53.370904 c -0.69839,-6.35384 -3.43183,-13.58542 -10.09655,-20.95531 z" />
  <path
     style="fill:#ea2e17;fill-opacity:1;stroke:none;stroke-width:0.264583px;stroke-linecap:butt;stroke-linejoin:miter;stroke-opacity:1"
     d="m 50.107586,148.78003 -15.11258,-1.26719 c 0,0 -9.63843,-28.48981 -5.74363,-74.777385 l 7.50431,-3.10537 9.93893,34.862195 6.64856,31.86735 z"
     id="path915" />
  <path
     style="fill:#3e3438;fill-opacity:1;stroke:none;stroke-width:0.264583px;stroke-linecap:butt;stroke-linejoin:miter;stroke-opacity:1"
     d="m 35.485676,146.4944 c 0,0 -32.8356396,2.68644 -35.30946956,-32.51548 C -2.2975936,78.777015 21.937106,69.608405 31.398816,71.740275 Z"
     id="path917" />
  <path
     style="fill:#3e3438;fill-opacity:1;stroke:none;stroke-width:0.264583px;stroke-linecap:butt;stroke-linejoin:miter;stroke-opacity:1"
     d="m 186.67272,143.32141 c 0,0 31.13925,6.16128 32.84414,-31.26931 1.38518,-30.411165 -11.35493,-44.398185 -32.28881,-40.961905 -16.04188,2.63326 -0.55533,72.231215 -0.55533,72.231215 z"
     id="path923" />
  <path
     id="path917-6"
     style="fill:#e8e62c;fill-opacity:1;stroke:none;stroke-width:0.264583px;stroke-linecap:butt;stroke-linejoin:miter;stroke-opacity:1"
     d="m 12.570956,139.82724 c 0.48771,0.0977 1.01658,0.22288 1.47175,0.30334 1.06434,0.18816 2.0285,0.33123 2.84114,0.43822 1.62534,0.21397 2.6443,0.28422 2.6443,0.28422 -0.35607,-0.19756 -0.71464,-0.44347 -1.07383,-0.73071 -0.3592,-0.28724 -0.71906,-0.61594 -1.07797,-0.97927 -0.71784,-0.72664 -1.43208,-1.5921 -2.12855,-2.54144 -0.69649,-0.94935 -1.37509,-1.9826 -2.02313,-3.04581 -0.64805,-1.06321 -1.26508,-2.15637 -1.83761,-3.22461 -1.14512,-2.13648 -2.1123296,-4.17411 -2.7931296,-5.67769 -0.6808,-1.50358 -1.07537,-2.47324 -1.07537,-2.47324 -0.0871,-0.30982 -0.13354,-0.69031 -0.14367,-1.13171 -0.0101,-0.44139 0.0161,-0.9437 0.0734,-1.49655 0.11462,-1.10568 0.35446,-2.414 0.68162,-3.84472 0.32715,-1.43073 0.74168,-2.98377 1.2051,-4.57854 0.46341,-1.59476 0.9757796,-3.23135 1.4991196,-4.82916 1.0467,-3.19561 2.13715,-6.23624 2.96572,-8.478028 0.82857,-2.241797 1.39525,-3.684527 1.39525,-3.684527 -0.68307,-0.006 -1.34239,0.015 -1.97815,0.0599 -0.6358,0.045 -1.24828,0.11345 -1.83762,0.20309 -0.58935,0.0896 -1.15532,0.20027 -1.6991196,0.32815 -0.5438,0.12787 -1.06514,0.2734 -1.56425,0.43304 -0.99824,0.3193 -1.90788,0.69517 -2.73267,1.10278 -0.82475,0.40761 -1.56477,0.846647 -2.2231,1.290877 -0.65834,0.44423 -1.23534,0.89376 -1.73427,1.32291 -0.24982,0.21489 -0.42288,0.39961 -0.63406996,0.601 -0.73957,4.249588 -0.99759,9.062238 -0.61545,14.499888 0.93437996,13.29596 6.20259996,21.17668 12.39458956,25.84855 z" />
  <path
     style="fill:#ea2e17;fill-opacity:1;stroke:none;stroke-width:0.264583px;stroke-linecap:butt;stroke-linejoin:miter;stroke-opacity:1"
     d="m 171.86516,145.97223 15.12498,-0.55913 c 0,0 3.55788,-25.69894 0.4032,-75.542685 l -17.18245,-6.22946 4.16283,24.18732 z"
     id="path921" />
  <path
     id="path923-9"
     style="fill:#e8e62c;fill-opacity:1;stroke:none;stroke-width:0.264583px;stroke-linecap:butt;stroke-linejoin:miter;stroke-opacity:1"
     d="m 218.02058,92.445375 c -0.16843,-0.0608 -0.34203,-0.1397 -0.50903,-0.19637 -0.68794,-0.23347 -1.36324,-0.43212 -2.02158,-0.601 -0.65833,-0.16887 -1.29974,-0.30771 -1.91979,-0.42116 -1.24007,-0.2269 -2.39516,-0.35219 -3.42974,-0.41238 -1.0346,-0.0602 -1.94897,-0.0554 -2.70838,-0.0222 -1.51879,0.0664 -2.41742,0.2465 -2.41742,0.2465 0.5283,0.11604 1.0236,0.30487 1.48778,0.55707 0.46416,0.25219 0.89752,0.56767 1.30173,0.93689 0.4042,0.36922 0.77919,0.79223 1.12757,1.25936 0.34838,0.46713 0.67016,0.97802 0.96687,1.52393 0.2967,0.54592 0.56835,1.12662 0.81751,1.732197 0.24918,0.60558 0.47582,1.23645 0.68162,1.88257 0.41158,1.292258 0.74012,2.646078 1.00303,3.985808 0.26292,1.33972 0.4603,2.66527 0.60772,3.8995 0.14743,1.23423 0.24546,2.3775 0.31057,3.35328 0.13026,1.95156 0.12869,3.23288 0.12869,3.23288 0.0666,0.4444 0.084,0.93082 0.0579,1.45211 -0.0262,0.52129 -0.0959,1.07769 -0.2031,1.66191 -0.10715,0.58423 -0.25153,1.19614 -0.42788,1.82935 -0.17632,0.6332 -0.38436,1.28773 -0.61804,1.95595 -0.46739,1.33645 -1.03759,2.7289 -1.66346,4.12171 -0.6259,1.39282 -1.30747,2.78573 -1.99729,4.12327 -0.68985,1.33753 -1.38821,2.61985 -2.04742,3.79046 -0.65921,1.17062 -1.27929,2.22972 -1.81333,3.12178 -1.06807,1.7841 -1.79112,2.89956 -1.79112,2.89956 0.78147,-0.14874 1.54676,-0.32185 2.29497,-0.51521 0.74819,-0.19337 1.47923,-0.40689 2.1921,-0.63769 1.35898,-0.43999 2.64118,-0.94815 3.86075,-1.48622 4.35895,-4.70972 7.69813,-12.10405 8.22481,-23.66729 0.34419,-7.55623 -0.18709,-14.093588 -1.49601,-19.606545 z" />
  <path
     style="fill:#f5cea7;fill-opacity:1;stroke:none;stroke-width:0.264583px;stroke-linecap:butt;stroke-linejoin:miter;stroke-opacity:1"
     d="m 43.916946,105.68321 c -10.38277,-41.635025 9.37959,-55.984985 56.734894,-70.068675 48.71619,8.22231 80.21566,18.05788 74.97143,60.64633 -5.24424,42.588445 -3.47659,49.627115 -3.47659,49.627115 -4.68647,46.53892 -59.19267,44.81894 -59.19267,44.81894 -77.371304,-5.06695 -59.936774,-48.01467 -69.037064,-85.02371 z"
     id="path848" />
  <path
     style="color:#000000;font-style:normal;font-variant:normal;font-weight:normal;font-stretch:normal;font-size:medium;line-height:normal;font-family:sans-serif;font-variant-ligatures:normal;font-variant-position:normal;font-variant-caps:normal;font-variant-numeric:normal;font-variant-alternates:normal;font-variant-east-asian:normal;font-feature-settings:normal;font-variation-settings:normal;text-indent:0;text-align:start;text-decoration:none;text-decoration-line:none;text-decoration-style:solid;text-decoration-color:#000000;letter-spacing:normal;word-spacing:normal;text-transform:none;writing-mode:lr-tb;direction:ltr;text-orientation:mixed;dominant-baseline:auto;baseline-shift:baseline;text-anchor:start;white-space:normal;shape-padding:0;shape-margin:0;inline-size:0;clip-rule:nonzero;display:inline;overflow:visible;visibility:visible;isolation:auto;mix-blend-mode:normal;color-interpolation:sRGB;color-interpolation-filters:linearRGB;solid-color:#000000;solid-opacity:1;vector-effect:none;fill:#000000;fill-opacity:1;fill-rule:nonzero;stroke:none;stroke-width:1.02256;stroke-linecap:round;stroke-linejoin:miter;stroke-miterlimit:4;stroke-dasharray:none;stroke-dashoffset:0;stroke-opacity:1;color-rendering:auto;image-rendering:auto;shape-rendering:auto;text-rendering:auto;enable-background:accumulate;stop-color:#000000"
     d="m 73.128516,90.206915 a 5.937977,6.7669194 86.249012 0 0 -2.58755,-0.27816 5.937977,6.7669194 86.249012 0 0 -6.37547,6.35807 l 2.47813,38.975955 a 5.937977,6.7669194 86.249012 0 0 7.12945,5.49285 5.937977,6.7669194 86.249012 0 0 6.37547,-6.35808 l -2.47813,-38.975955 a 5.937977,6.7669194 86.249012 0 0 -4.54189,-5.21468 z"
     id="path856" />
  <path
     style="color:#000000;font-style:normal;font-variant:normal;font-weight:normal;font-stretch:normal;font-size:medium;line-height:normal;font-family:sans-serif;font-variant-ligatures:normal;font-variant-position:normal;font-variant-caps:normal;font-variant-numeric:normal;font-variant-alternates:normal;font-variant-east-asian:normal;font-feature-settings:normal;font-variation-settings:normal;text-indent:0;text-align:start;text-decoration:none;text-decoration-line:none;text-decoration-style:solid;text-decoration-color:#000000;letter-spacing:normal;word-spacing:normal;text-transform:none;writing-mode:lr-tb;direction:ltr;text-orientation:mixed;dominant-baseline:auto;baseline-shift:baseline;text-anchor:start;white-space:normal;shape-padding:0;shape-margin:0;inline-size:0;clip-rule:nonzero;display:inline;overflow:visible;visibility:visible;isolation:auto;mix-blend-mode:normal;color-interpolation:sRGB;color-interpolation-filters:linearRGB;solid-color:#000000;solid-opacity:1;vector-effect:none;fill:#000000;fill-opacity:1;fill-rule:nonzero;stroke:none;stroke-width:1.02256;stroke-linecap:round;stroke-linejoin:miter;stroke-miterlimit:4;stroke-dasharray:none;stroke-dashoffset:0;stroke-opacity:1;color-rendering:auto;image-rendering:auto;shape-rendering:auto;text-rendering:auto;enable-background:accumulate;stop-color:#000000"
     d="m 150.5498,91.010805 a 6.7669194,5.937977 1.4707646 0 0 -2.5515,-0.5125 6.7669194,5.937977 1.4707646 0 0 -6.92767,5.75145 l -1.07938,39.039735 a 6.7669194,5.937977 1.4707646 0 0 6.59996,6.11891 6.7669194,5.937977 1.4707646 0 0 6.92767,-5.75145 l 1.07937,-39.039745 a 6.7669194,5.937977 1.4707646 0 0 -4.04844,-5.60639 z"
     id="path862" />
  <ellipse
     style="fill:#f9f7f3;fill-opacity:1;stroke:none;stroke-width:13.6602;stroke-linecap:round;stroke-miterlimit:4;stroke-dasharray:none"
     id="path882"
     cx="58.939301"
     cy="112.37991"
     rx="3.6379545"
     ry="7.0800481"
     transform="rotate(-6.3962928)" />
  <ellipse
     style="fill:#f9f7f3;fill-opacity:1;stroke:none;stroke-width:13.6602;stroke-linecap:round;stroke-miterlimit:4;stroke-dasharray:none"
     id="ellipse884"
     cx="152.0184"
     cy="98.1791"
     rx="3.6379545"
     ry="7.0800481"
     transform="rotate(2.5283146)" />
  <ellipse
     style="opacity:0.553842;fill:#ed969b;fill-opacity:1;stroke:none;stroke-width:15.875;stroke-linecap:round;stroke-miterlimit:4;stroke-dasharray:none"
     id="path888"
     cx="51.587154"
     cy="162.94083"
     rx="7.9495945"
     ry="6.170783"
     transform="rotate(-6.1852562)" />
  <ellipse
     style="opacity:0.553842;fill:#ed969b;fill-opacity:1;stroke:none;stroke-width:15.875;stroke-linecap:round;stroke-miterlimit:4;stroke-dasharray:none"
     id="ellipse910"
     cx="91.418495"
     cy="197.05417"
     rx="7.9495945"
     ry="6.170783"
     transform="rotate(-19.486473)" />
  <ellipse
     style="fill:#efb781;fill-opacity:1;stroke:none;stroke-width:15.875;stroke-linecap:round;stroke-miterlimit:4;stroke-dasharray:none"
     id="path912"
     cx="110.22325"
     cy="153.89647"
     rx="4.8666577"
     ry="3.5452731" />
  <path
     id="path1124"
     style="color:#000000;font-style:normal;font-variant:normal;font-weight:normal;font-stretch:normal;font-size:medium;line-height:normal;font-family:sans-serif;font-variant-ligatures:normal;font-variant-position:normal;font-variant-caps:normal;font-variant-numeric:normal;font-variant-alternates:normal;font-variant-east-asian:normal;font-feature-settings:normal;font-variation-settings:normal;text-indent:0;text-align:start;text-decoration:none;text-decoration-line:none;text-decoration-style:solid;text-decoration-color:#000000;letter-spacing:normal;word-spacing:normal;text-transform:none;writing-mode:lr-tb;direction:ltr;text-orientation:mixed;dominant-baseline:auto;baseline-shift:baseline;text-anchor:start;white-space:normal;shape-padding:0;shape-margin:0;inline-size:0;clip-rule:nonzero;display:inline;overflow:visible;visibility:visible;isolation:auto;mix-blend-mode:normal;color-interpolation:sRGB;color-interpolation-filters:linearRGB;solid-color:#000000;solid-opacity:1;vector-effect:none;fill:#000000;fill-opacity:1;fill-rule:nonzero;stroke:none;stroke-width:1;stroke-linecap:butt;stroke-linejoin:miter;stroke-miterlimit:4;stroke-dasharray:none;stroke-dashoffset:0;stroke-opacity:1;color-rendering:auto;image-rendering:auto;shape-rendering:auto;text-rendering:auto;enable-background:accumulate;stop-color:#000000"
     d="m 92.776736,155.87321 a 1.4942008,1.4954161 0 0 0 -1.47329,1.495 1.4942008,1.4954161 0 0 0 0.34674,0.95757 l -0.19223,-0.0558 c 0,0 -1.02575,3.48916 0.74621,6.94737 1.77196,3.45822 6.33334,6.75282 16.952974,6.55826 10.60283,-0.19425 15.84208,-3.11161 18.3105,-6.25388 1.23422,-1.57113 1.76303,-3.18303 1.93374,-4.48603 0.0853,-0.6515 0.0817,-1.2254 0.0331,-1.68982 -0.0382,-0.36482 -0.0913,-0.6458 -0.18552,-0.88625 a 1.4942008,1.4954161 0 0 0 0.26355,-0.84801 1.4942008,1.4954161 0 0 0 -1.49448,-1.495 1.4942008,1.4954161 0 0 0 -1.49397,1.495 1.4942008,1.4954161 0 0 0 1.49397,1.49551 1.4942008,1.4954161 0 0 0 0.29972,-0.0305 c 0.0246,0.10797 0.0487,0.23238 0.0641,0.37879 0.0396,0.37781 0.0435,0.875 -0.031,1.44332 -0.14892,1.13665 -0.60707,2.5582 -1.71515,3.96875 -2.21614,2.82112 -7.08224,5.6605 -17.49815,5.85133 -10.399124,0.19052 -14.427424,-2.93105 -15.991794,-5.98413 -1.31455,-2.56553 -0.89742,-5.15222 -0.72967,-5.92057 a 1.4942008,1.4954161 0 0 0 0.38189,0.0496 1.4942008,1.4954161 0 0 0 1.49396,-1.49552 1.4942008,1.4954161 0 0 0 -1.49396,-1.495 1.4942008,1.4954161 0 0 0 -0.0212,0 z" />
  <path
     id="path973-6"
     style="fill:#66acac;fill-opacity:1;stroke:none;stroke-width:0.264583px;stroke-linecap:butt;stroke-linejoin:miter;stroke-opacity:1"
     d="M 100.8539,0.03013557 C 44.835766,8.7959656 17.584796,23.672625 41.245126,84.804295 c 0.75406,-26.1739 21.00879,-37.77003 59.406714,-49.18976 44.45227,7.50264 74.56329,16.35365 75.51065,50.20055 C 194.17479,8.3167056 155.56708,-0.60925443 100.8539,0.03013557 Z" />
  <path
     style="fill:#f68415;fill-opacity:1;stroke:none;stroke-width:0.264583px;stroke-linecap:butt;stroke-linejoin:miter;stroke-opacity:1"
     d="m 96.644166,79.309185 58.291444,-27.84707 -8.88527,-37.57103 c 0,0 -29.81269,-14.87318943 -43.11332,-12.94097943 0,0 -20.335914,6.19381003 -23.214894,14.48586943 -2.87898,8.29206 -10.80466,32.9403 -10.80466,32.9403 l 22.23766,4.75461 z"
     id="path1099" />
  <path
     id="path1099-2"
     style="fill:#e87709;fill-opacity:1;stroke:none;stroke-width:0.264583px;stroke-linecap:butt;stroke-linejoin:miter;stroke-opacity:1"
     d="m 91.251766,53.590775 c 0.16269,-1.77927 0.31975,-3.6433 0.44492,-5.53403 0.13603,-2.05423 0.23821,-4.11715 0.28112,-6.06475 0.043,-1.9476 0.0271,-3.77989 -0.0739,-5.37279 -0.0505,-0.79646 -0.12259,-1.53293 -0.21858,-2.19419 -0.096,-0.66126 -0.21595,-1.24746 -0.3638,-1.74253 -0.14785,-0.49506 -0.32311,-0.89897 -0.52917,-1.19682 -0.10302,-0.14893 -0.21402,-0.27154 -0.33279,-0.36536 -0.1188,-0.0938 -0.24556,-0.15896 -0.38087,-0.19378 -0.27064,-0.0696 -0.53281,-0.0639 -0.78652,0.008 -0.25369,0.0722 -0.49911,0.21055 -0.73586,0.40618 -0.23678,0.19562 -0.46488,0.44853 -0.68472,0.7493 -0.21984,0.30077 -0.43116,0.64956 -0.63407,1.03715 -0.40579,0.77518 -0.77759,1.70568 -1.1157,2.71818 -0.33811,1.0125 -0.64267,2.10693 -0.9131,3.21014 -0.27046,1.10321 -0.50726,2.21501 -0.71004,3.26233 -0.2028,1.04732 -0.37179,2.03046 -0.50696,2.87528 -0.27033,1.68964 -0.40513,2.82722 -0.40513,2.82722 l -8.77777,1.6154 16.3463,3.49488 z" />
  <path
     id="rect963"
     style="fill:#f7fdf6;fill-opacity:1;stroke:#266c19;stroke-width:1.21851;stroke-linecap:round"
     d="m 355.40874,32.394755 c -18.83193,0 -33.99309,11.43662 -33.99309,25.64288 v 43.862285 l -131.40053,64.6632 132.02873,-18.28205 c 3.03743,11.82505 16.77569,20.70106 33.36489,20.70106 h 454.87581 c 18.83189,0 33.99304,-11.43714 33.99304,-25.6434 V 58.037635 c 0,-14.20626 -15.16115,-25.64288 -33.99304,-25.64288 z" />
  <g
     aria-label="see what’s new"
     id="text970"
     style="font-weight:bold;font-size:84.6667px;line-height:1.25;font-family:sans-serif;-inkscape-font-specification:'sans-serif Bold';letter-spacing:0px;word-spacing:0px;fill:#337627;fill-opacity:1;stroke-width:0.264583">
    <path
       d="m 390.17011,90.189046 q 0.0827,-2.315105 -2.85254,-2.315105 h -5.16764 q -3.55534,0.04134 -3.22461,4.836916 0.0827,1.240235 0.0827,2.232422 0,3.100588 3.14193,3.100588 h 7.2347 q 3.72071,0 5.99447,2.645833 2.31511,2.64584 2.31511,6.3252 v 5.53971 q 0,3.80339 -2.48047,6.53191 -2.48047,2.68717 -6.24252,2.68717 h -9.09506 q -4.05143,0 -6.32519,-2.60449 -2.31511,-2.60449 -2.31511,-6.65593 h 7.11068 q -0.0827,1.44694 0.7028,2.06706 0.82682,0.57878 2.14974,0.57878 h 5.99447 q 3.14193,0 3.14193,-3.10059 v -4.13412 q 0,-3.22461 -3.14193,-3.22461 h -6.82129 q -3.76205,0 -6.24252,-2.35644 -2.48047,-2.356449 -2.48047,-6.077153 v -6.03581 q 0,-3.720705 2.31511,-6.366539 2.3151,-2.645835 5.99447,-2.645835 h 8.88835 q 3.80338,0 6.11849,2.521811 2.3151,2.521811 2.3151,6.449222 z"
       style="font-style:normal;font-variant:normal;font-weight:normal;font-stretch:normal;font-size:84.6667px;font-family:Uroob;-inkscape-font-specification:Uroob;fill:#337627;fill-opacity:1;stroke-width:0.264583"
       id="path2175" />
    <path
       d="m 432.83419,112.47193 q -0.12402,6.24252 -4.83691,8.51628 -1.57097,0.74414 -3.59668,0.74414 h -9.79786 q -3.67936,0 -6.07715,-2.64583 -2.43913,-2.64584 -2.43913,-6.36654 V 90.147705 q 0,-3.679364 2.23242,-6.325198 2.23243,-2.645835 5.87045,-2.645835 h 10.50065 q 3.67937,0 5.87045,2.811199 2.19108,2.811199 2.19108,6.573245 v 5.374351 q 0,3.638023 -2.02572,6.242513 -2.02571,2.56316 -5.62239,2.56316 h -12.07162 v 7.48275 q 0,3.30729 3.34863,3.30729 h 6.28386 q 1.4056,0 2.23242,-0.78548 0.86816,-0.82683 0.82682,-2.27377 z M 416.38041,87.584552 q -3.34863,0 -3.34863,3.472658 v 7.565433 h 9.05371 q 1.57096,0 2.64584,-0.868164 1.11621,-0.909506 1.11621,-2.604494 v -4.25814 q 0,-1.736328 -1.11621,-2.521811 -1.07488,-0.785482 -2.64584,-0.785482 z"
       style="font-style:normal;font-variant:normal;font-weight:normal;font-stretch:normal;font-size:84.6667px;font-family:Uroob;-inkscape-font-specification:Uroob;fill:#337627;fill-opacity:1;stroke-width:0.264583"
       id="path2177" />
    <path
       d="m 463.13726,112.47193 q -0.12402,6.24252 -4.83691,8.51628 -1.57097,0.74414 -3.59668,0.74414 h -9.79786 q -3.67936,0 -6.07715,-2.64583 -2.43913,-2.64584 -2.43913,-6.36654 V 90.147705 q 0,-3.679364 2.23242,-6.325198 2.23243,-2.645835 5.87045,-2.645835 h 10.50065 q 3.67937,0 5.87045,2.811199 2.19108,2.811199 2.19108,6.573245 v 5.374351 q 0,3.638023 -2.02572,6.242513 -2.02571,2.56316 -5.62239,2.56316 h -12.07162 v 7.48275 q 0,3.30729 3.34863,3.30729 h 6.28386 q 1.4056,0 2.23242,-0.78548 0.86816,-0.82683 0.82682,-2.27377 z M 446.68348,87.584552 q -3.34863,0 -3.34863,3.472658 v 7.565433 h 9.05371 q 1.57096,0 2.64584,-0.868164 1.11621,-0.909506 1.11621,-2.604494 v -4.25814 q 0,-1.736328 -1.11621,-2.521811 -1.07488,-0.785482 -2.64584,-0.785482 z"
       style="font-style:normal;font-variant:normal;font-weight:normal;font-stretch:normal;font-size:84.6667px;font-family:Uroob;-inkscape-font-specification:Uroob;fill:#337627;fill-opacity:1;stroke-width:0.264583"
       id="path2179" />
    <path
       d="m 510.6796,118.67311 q -2.93522,2.85254 -6.11849,2.85254 h -5.45703 q -3.67937,0 -6.3252,-2.39779 -2.64584,-2.39779 -2.64584,-6.07715 V 81.424719 h 7.06934 v 30.261731 q 0,1.57096 0.78548,2.68718 0.78549,1.07487 2.52182,1.07487 h 3.14192 q 2.14974,0 3.14193,-1.9017 0.28939,-0.57877 0.28939,-1.24023 V 81.424719 l 7.11068,-0.04134 v 31.005872 q 0,1.32292 0.95085,2.19108 0.99218,0.86817 2.3151,0.86817 h 3.14193 q 1.69499,0 2.56315,-1.07487 0.90951,-1.11622 0.90951,-2.68718 V 81.424719 l 7.06934,-0.04134 v 31.667332 q 0,3.59668 -2.56316,6.03581 -2.56315,2.43913 -6.24251,2.43913 h -5.37435 q -3.43132,0 -6.28386,-2.85254 z"
       style="font-style:normal;font-variant:normal;font-weight:normal;font-stretch:normal;font-size:84.6667px;font-family:Uroob;-inkscape-font-specification:Uroob;fill:#337627;fill-opacity:1;stroke-width:0.264583"
       id="path2181" />
    <path
       d="M 562.23204,121.69101 H 555.1627 V 91.305257 q 0,-1.570964 -0.90951,-2.645834 -0.86816,-1.116212 -2.56315,-1.116212 h -5.20899 q -1.69498,0 -2.89388,1.281576 -1.24023,1.281576 -1.24023,2.893882 v 29.972341 h -7.06934 l -0.0413,-52.66864 h 7.15202 v 13.84929 q 1.52962,-1.446941 3.59668,-1.446941 h 6.61459 q 3.63802,0 6.65592,2.439129 2.97657,2.439128 2.97657,6.077151 z"
       style="font-style:normal;font-variant:normal;font-weight:normal;font-stretch:normal;font-size:84.6667px;font-family:Uroob;-inkscape-font-specification:Uroob;fill:#337627;fill-opacity:1;stroke-width:0.264583"
       id="path2183" />
    <path
       d="m 587.49149,91.05721 q 0,-3.472658 -3.34864,-3.472658 h -7.52409 q -1.24023,0 -1.94303,0.785482 -0.66146,0.744141 -0.7028,1.943035 h -7.11068 q 0.0827,-3.762046 2.43912,-6.366539 2.35645,-2.604493 5.99447,-2.604493 h 11.03809 q 3.55534,0 5.82911,2.563152 2.27376,2.563152 2.27376,6.242516 v 31.584645 h -6.90397 v -1.6123 q -2.23243,1.73633 -4.38217,1.73633 h -6.77995 q -3.76204,0 -6.82129,-2.43913 -3.05924,-2.43913 -3.05924,-5.99447 v -7.85482 q 0,-3.63802 3.05924,-6.077153 3.05925,-2.439128 6.82129,-2.439128 h 8.02019 q 1.65365,0 3.10059,0.909505 z m -0.12403,21.00131 v -5.1263 q 0,-1.57097 -0.9095,-2.64584 -0.86817,-1.11621 -2.56316,-1.11621 h -7.02799 q -1.73633,0 -2.52181,1.11621 -0.78549,1.07487 -0.78549,2.64584 v 5.1263 q 0,1.57097 0.78549,2.68718 0.78548,1.07487 2.52181,1.07487 h 7.02799 q 1.69499,0 2.56316,-1.07487 0.9095,-1.11621 0.9095,-2.68718 z"
       style="font-style:normal;font-variant:normal;font-weight:normal;font-stretch:normal;font-size:84.6667px;font-family:Uroob;-inkscape-font-specification:Uroob;fill:#337627;fill-opacity:1;stroke-width:0.264583"
       id="path2185" />
    <path
       d="m 608.45145,113.17473 q 0,3.05925 3.3073,3.05925 3.34863,0 3.7207,-3.47266 h 1.52962 v 7.48275 q -2.72851,2.48047 -6.36654,2.48047 -6.82129,0 -8.97103,-5.1263 -0.7028,-1.65365 -0.7028,-3.92741 V 88.90747 h -3.0179 v -6.242516 h 3.0179 v -7.896162 h 7.48275 v 7.896162 h 5.70508 v 6.242516 h -5.70508 z"
       style="font-style:normal;font-variant:normal;font-weight:normal;font-stretch:normal;font-size:84.6667px;font-family:Uroob;-inkscape-font-specification:Uroob;fill:#337627;fill-opacity:1;stroke-width:0.264583"
       id="path2187" />
    <path
       d="m 633.62822,67.120677 -2.23243,16.495124 h -9.3431 l 5.37435,-16.495124 z"
       style="font-style:normal;font-variant:normal;font-weight:normal;font-stretch:normal;font-size:84.6667px;font-family:Uroob;-inkscape-font-specification:Uroob;fill:#337627;fill-opacity:1;stroke-width:0.264583"
       id="path2189" />
    <path
       d="m 656.82063,90.189046 q 0.0827,-2.315105 -2.85254,-2.315105 h -5.16765 q -3.55534,0.04134 -3.22461,4.836916 0.0827,1.240235 0.0827,2.232422 0,3.100588 3.14193,3.100588 h 7.23471 q 3.7207,0 5.99446,2.645833 2.31511,2.64584 2.31511,6.3252 v 5.53971 q 0,3.80339 -2.48047,6.53191 -2.48047,2.68717 -6.24252,2.68717 h -9.09505 q -4.05144,0 -6.3252,-2.60449 -2.31511,-2.60449 -2.31511,-6.65593 h 7.11068 q -0.0827,1.44694 0.7028,2.06706 0.82683,0.57878 2.14974,0.57878 h 5.99447 q 3.14193,0 3.14193,-3.10059 v -4.13412 q 0,-3.22461 -3.14193,-3.22461 h -6.82129 q -3.76204,0 -6.24251,-2.35644 -2.48047,-2.356449 -2.48047,-6.077153 v -6.03581 q 0,-3.720705 2.3151,-6.366539 2.31511,-2.645835 5.99447,-2.645835 h 8.88835 q 3.80339,0 6.11849,2.521811 2.31511,2.521811 2.31511,6.449222 z"
       style="font-style:normal;font-variant:normal;font-weight:normal;font-stretch:normal;font-size:84.6667px;font-family:Uroob;-inkscape-font-specification:Uroob;fill:#337627;fill-opacity:1;stroke-width:0.264583"
       id="path2191" />
    <path
       d="m 702.41992,83.822507 q 2.39778,-2.397788 4.83691,-2.397788 h 7.028 q 3.59668,0 6.20117,2.439129 2.6045,2.439128 2.6045,6.077151 v 31.750011 h -7.06934 V 91.305257 q 0,-1.570964 -0.90951,-2.645834 -0.86816,-1.116212 -2.56315,-1.116212 h -6.03581 q -2.43913,-0.04134 -3.10059,3.017905 -0.16536,0.826823 -0.2067,1.570964 v 29.55893 h -7.06934 l -0.0413,-40.266291 h 6.3252 z"
       style="font-style:normal;font-variant:normal;font-weight:normal;font-stretch:normal;font-size:84.6667px;font-family:Uroob;-inkscape-font-specification:Uroob;fill:#337627;fill-opacity:1;stroke-width:0.264583"
       id="path2193" />
    <path
       d="m 753.931,112.47193 q -0.12402,6.24252 -4.83691,8.51628 -1.57097,0.74414 -3.59668,0.74414 h -9.79786 q -3.67936,0 -6.07715,-2.64583 -2.43913,-2.64584 -2.43913,-6.36654 V 90.147705 q 0,-3.679364 2.23242,-6.325198 2.23243,-2.645835 5.87045,-2.645835 h 10.50065 q 3.67937,0 5.87045,2.811199 2.19108,2.811199 2.19108,6.573245 v 5.374351 q 0,3.638023 -2.02572,6.242513 -2.02571,2.56316 -5.62239,2.56316 h -12.07162 v 7.48275 q 0,3.30729 3.34863,3.30729 h 6.28386 q 1.4056,0 2.23242,-0.78548 0.86816,-0.82683 0.82682,-2.27377 z M 737.47722,87.584552 q -3.34863,0 -3.34863,3.472658 v 7.565433 h 9.05371 q 1.57096,0 2.64583,-0.868164 1.11622,-0.909506 1.11622,-2.604494 v -4.25814 q 0,-1.736328 -1.11622,-2.521811 -1.07487,-0.785482 -2.64583,-0.785482 z"
       style="font-style:normal;font-variant:normal;font-weight:normal;font-stretch:normal;font-size:84.6667px;font-family:Uroob;-inkscape-font-specification:Uroob;fill:#337627;fill-opacity:1;stroke-width:0.264583"
       id="path2195" />
    <path
       d="m 778.07424,118.67311 q -2.93522,2.85254 -6.11849,2.85254 h -5.45704 q -3.67936,0 -6.32519,-2.39779 -2.64584,-2.39779 -2.64584,-6.07715 V 81.424719 h 7.06934 v 30.261731 q 0,1.57096 0.78548,2.68718 0.78548,1.07487 2.52181,1.07487 h 3.14193 q 2.14974,0 3.14193,-1.9017 0.28939,-0.57877 0.28939,-1.24023 V 81.424719 l 7.11068,-0.04134 v 31.005872 q 0,1.32292 0.95084,2.19108 0.99219,0.86817 2.31511,0.86817 h 3.14193 q 1.69499,0 2.56315,-1.07487 0.90951,-1.11622 0.90951,-2.68718 V 81.424719 l 7.06934,-0.04134 v 31.667332 q 0,3.59668 -2.56316,6.03581 -2.56315,2.43913 -6.24251,2.43913 h -5.37435 q -3.43132,0 -6.28386,-2.85254 z"
       style="font-style:normal;font-variant:normal;font-weight:normal;font-stretch:normal;font-size:84.6667px;font-family:Uroob;-inkscape-font-specification:Uroob;fill:#337627;fill-opacity:1;stroke-width:0.264583"
       id="path2197" />
  </g>
</svg>
