<?xml version="1.0" encoding="UTF-8" standalone="no"?>
<svg
   xmlns:dc="http://purl.org/dc/elements/1.1/"
   xmlns:cc="http://creativecommons.org/ns#"
   xmlns:rdf="http://www.w3.org/1999/02/22-rdf-syntax-ns#"
   xmlns:svg="http://www.w3.org/2000/svg"
   xmlns="http://www.w3.org/2000/svg"
   xmlns:sodipodi="http://sodipodi.sourceforge.net/DTD/sodipodi-0.dtd"
   xmlns:inkscape="http://www.inkscape.org/namespaces/inkscape"
   width="42.215271"
   height="42.215267"
   viewBox="0 0 21.107636 21.107633"
   version="1.1"
   id="svg1814"
   sodipodi:docname="logoArrow.svg"
   inkscape:version="1.0.2 (1.0.2+r75+1)">
  <metadata
     id="metadata1820">
    <rdf:RDF>
      <cc:Work
         rdf:about="">
        <dc:format>image/svg+xml</dc:format>
        <dc:type
           rdf:resource="http://purl.org/dc/dcmitype/StillImage" />
        <dc:title></dc:title>
      </cc:Work>
    </rdf:RDF>
  </metadata>
  <defs
     id="defs1818" />
  <sodipodi:namedview
     pagecolor="#ffffff"
     bordercolor="#666666"
     borderopacity="1"
     objecttolerance="10"
     gridtolerance="10"
     guidetolerance="10"
     inkscape:pageopacity="0"
     inkscape:pageshadow="2"
     inkscape:window-width="3820"
     inkscape:window-height="1032"
     id="namedview1816"
     showgrid="false"
     inkscape:zoom="90.509668"
     inkscape:cx="1.6770922"
     inkscape:cy="0.76752606"
     inkscape:window-x="0"
     inkscape:window-y="28"
     inkscape:window-maximized="1"
     inkscape:current-layer="svg1814"
     fit-margin-top="0"
     fit-margin-left="0"
     fit-margin-right="0"
     fit-margin-bottom="0"
     inkscape:snap-global="true"
     showguides="true"
     inkscape:guide-bbox="true" />
  <path
     id="path2039"
     style="fill:#000000;fill-opacity:1;stroke:none;stroke-width:0.0313751px;stroke-linecap:butt;stroke-linejoin:miter;stroke-opacity:1"
     d="M 1.5937879,-0.00193811 18.686681,4.8403479e-8 21.097098,2.4104175 l 0.01054,3.8320587 -2.373868,2.3738673 -3.405462,-0.00932 4.263412,4.2634125 0.01608,5.86564 -0.871722,0.871722 -5.865642,-0.01608 -4.2634118,-4.263412 0.00932,3.405461 -2.373868,2.373868 L 2.4104178,21.097098 3.7893502e-7,18.686681 4.3865686e-4,1.5150998 Z"
     sodipodi:nodetypes="ccccccccccccccccc" />
  <path
     id="color-fill"
     style="fill:#d9e167;fill-opacity:1;stroke:none;stroke-width:0.0313751px;stroke-linecap:butt;stroke-linejoin:miter;stroke-opacity:1"
     d="m 2.0355473,1.4518791 16.2104897,0.1050088 1.592026,1.5920254 0.0071,2.5919999 -1.791582,1.7915814 -5.742408,-0.015828 6.262307,6.2623064 0.01142,4.155308 -0.337401,0.337401 -0.08941,0.08941 -0.337401,0.337401 -4.155309,-0.01142 -6.2623067,-6.262307 0.015829,5.742408 -1.7915816,1.791581 -2.5919996,-0.0071 L 1.4433262,18.359599 1.3383173,2.149109 1.4752571,2.0121693 1.6373026,1.8501237 Z" />
  <path
     id="path2086"
     style="fill:#ffffff;fill-opacity:1;stroke:none;stroke-width:0.0313751px;stroke-linecap:butt;stroke-linejoin:miter;stroke-opacity:1"
     d="m 11.639018,11.099685 1.58879,0.0044 3.202738,3.202739 0.0041,1.482971 -0.186505,0.186506 -0.332475,0.332474 -0.186462,0.186462 -1.482972,-0.0041 -3.202739,-3.202738 -0.0044,-1.588748 0.176997,-0.176997 0.245964,-0.245965 z" />
  <path
     id="path2091"
     style="fill:#ffffff;fill-opacity:1;stroke:none;stroke-width:0.0313751px;stroke-linecap:butt;stroke-linejoin:miter;stroke-opacity:1"
     d="m 7.410799,6.7910048 1.5062867,0.00414 3.6369383,3.6369382 -1.690053,-0.0046 -0.04663,0.04663 -0.382947,0.382946 -0.04663,0.04663 0.0046,1.690054 L 6.7554341,8.9567979 6.7512926,7.4505112 6.8840406,7.3177633 7.2780511,6.9237528 Z" />
  <path
     id="path2098"
     style="fill:#ffffff;fill-opacity:1;stroke:none;stroke-width:0.0313751px;stroke-linecap:butt;stroke-linejoin:miter;stroke-opacity:1"
     d="m 3.6388991,3.0808989 12.5602149,0.034526 1.177943,1.1779431 -1.034113,1.0341135 -5.912397,-0.016251 -0.7900062,0.7900063 -3.0174693,-0.00834 -0.039322,0.039322 -0.4606002,0.4606001 -0.039322,0.039322 0.00834,3.01747 L 5.30216,10.439619 5.318412,16.352015 4.2842953,17.38613 3.1063523,16.208187 3.0718271,3.647971 3.1603257,3.5594723 3.5504033,3.1693948 Z" />
</svg>
