<?xml version="1.0" standalone="no"?>
<!DOCTYPE svg PUBLIC "-//W3C//DTD SVG 20010904//EN"
 "http://www.w3.org/TR/2001/REC-SVG-20010904/DTD/svg10.dtd">
<svg version="1.0" xmlns="http://www.w3.org/2000/svg"
 width="700.000000pt" height="700.000000pt" viewBox="0 0 700.000000 700.000000"
 preserveAspectRatio="xMidYMid meet">
<metadata>
Created by potrace 1.11, written by Peter Selinger 2001-2013
</metadata>
<g transform="translate(0.000000,700.000000) scale(0.100000,-0.100000)"
fill="#000000" stroke="none">
<path d="M434 6912 c-49 -48 -167 -161 -262 -251 l-172 -164 0 -2846 0 -2846
400 -400 400 -400 635 -3 636 -2 393 393 393 393 -2 554 c-1 305 0 558 2 563
3 4 322 -309 709 -697 l705 -704 257 0 c141 0 578 -1 971 -2 l714 -2 145 145
144 144 -2 734 c0 404 -2 841 -2 972 l-1 238 -704 704 c-386 387 -703 706
-703 707 0 2 253 3 562 3 l561 -2 394 393 393 394 -2 635 -2 636 -400 399
-399 400 -2836 0 -2836 -1 -91 -87z"/>
</g>
</svg>
