<?xml version="1.0" encoding="UTF-8" standalone="no"?>
<svg
   xmlns:dc="http://purl.org/dc/elements/1.1/"
   xmlns:cc="http://creativecommons.org/ns#"
   xmlns:rdf="http://www.w3.org/1999/02/22-rdf-syntax-ns#"
   xmlns:svg="http://www.w3.org/2000/svg"
   xmlns="http://www.w3.org/2000/svg"
   xmlns:sodipodi="http://sodipodi.sourceforge.net/DTD/sodipodi-0.dtd"
   xmlns:inkscape="http://www.inkscape.org/namespaces/inkscape"
   width="26.45834mm"
   height="26.378521mm"
   viewBox="0 0 26.45834 26.378521"
   version="1.1"
   id="svg4403"
   sodipodi:docname="rightFreezeTail.svg"
   inkscape:version="1.0.2 (1.0.2+r75+1)">
  <sodipodi:namedview
     pagecolor="#ffffff"
     bordercolor="#666666"
     borderopacity="1"
     objecttolerance="10"
     gridtolerance="10"
     guidetolerance="10"
     inkscape:pageopacity="0"
     inkscape:pageshadow="2"
     inkscape:window-width="3840"
     inkscape:window-height="1080"
     id="namedview5162"
     showgrid="false"
     showguides="true"
     inkscape:guide-bbox="true"
     inkscape:zoom="13.050131"
     inkscape:cx="93.21927"
     inkscape:cy="55.848115"
     inkscape:window-x="0"
     inkscape:window-y="0"
     inkscape:window-maximized="0"
     inkscape:current-layer="svg4403">
    <sodipodi:guide
       position="22.388043,18.112838"
       orientation="1,0"
       id="guide5780" />
  </sodipodi:namedview>
  <defs
     id="defs4397" />
  <metadata
     id="metadata4400">
    <rdf:RDF>
      <cc:Work
         rdf:about="">
        <dc:format>image/svg+xml</dc:format>
        <dc:type
           rdf:resource="http://purl.org/dc/dcmitype/StillImage" />
        <dc:title />
      </cc:Work>
    </rdf:RDF>
  </metadata>
  <g
     id="g3529"
     transform="translate(-298.20668,-115.59704)">
    <path
       id="path3527"
       style="fill:#000000;fill-opacity:1;stroke:none;stroke-width:0.0314121px;stroke-linecap:butt;stroke-linejoin:miter;stroke-opacity:1"
       d="m 298.20668,115.59725 v 13.76616 l 4.16408,4.14135 h 6.03633 l -2.41742,2.40399 v 3.36103 l 2.72023,2.70578 h 3.41273 l 12.54239,-12.96097 v -0.007 -13.41034 z" />
  </g>
  <path
     id="path3503"
     style="fill:#e2e45e;fill-opacity:1;stroke:none;stroke-width:0.0314121px;stroke-linecap:butt;stroke-linejoin:miter;stroke-opacity:1"
     d="m 1.29165,2.12e-4 c 5e-6,1.06241 5e-6,2.124818 5e-6,3.187229 l -5e-6,4.655838 11.816855,-1.722168 -4.076753,4.054018 v 2.536796 l 1.840198,1.829861 h 2.254126 L 25.20544,7.444544 V 2.946112 2.716668 2.152877 l -2e-6,-2.152665 z"
     sodipodi:nodetypes="cccccccccccccc" />
  <path
     id="path3505"
     style="fill:#787876;fill-opacity:1;stroke:none;stroke-width:0.0314121px;stroke-linecap:butt;stroke-linejoin:miter;stroke-opacity:1"
     d="M 11.04763,2.184271 9.91976,1.062581 H 5.38502 l -1.05275,1.04698 v 0.26407 0.47075 0.26401 l 1.05275,1.04698 h 4.53474 l 1.12787,-1.12162 v -0.25061 -0.34826 z" />
  <path
     id="path3507"
     style="fill:#787876;fill-opacity:1;stroke:none;stroke-width:0.0314121px;stroke-linecap:butt;stroke-linejoin:miter;stroke-opacity:1"
     d="m 17.0913,2.127311 -1.06931,-1.06344 h -5.14951 l 1.19972,1.19321 v 0.066 0.54222 0.066 l -1.19972,1.1932 h 5.14951 l 1.06931,-1.06343 v -0.18796 -0.55788 z" />
  <path
     id="path3509"
     style="fill:none;fill-opacity:1;stroke:none;stroke-width:0.0314121px;stroke-linecap:butt;stroke-linejoin:miter;stroke-opacity:1"
     d="m 16.001078,0 v 0.06045 l 2.142109,2.130301 v 0.0557 0.652158 0.0557 L 16.001078,5.08461 v 1.11856 l -4.19717,4.17416 v 1.46419 h 1.667841 l 8.9164,-8.86751 V 2.848701 2.296391 2.17105 v 0 L 20.205299,1.7e-4" />
  <g
     id="g3541"
     transform="translate(-298.20668,-115.59704)">
    <g
       id="g3539">
      <path
         id="path3531"
         style="fill:#e2e45e;fill-opacity:1;stroke:none;stroke-width:0.0314121px;stroke-linecap:butt;stroke-linejoin:miter;stroke-opacity:1"
         d="m 322.88318,128.33325 -11.5505,-11.40182 h -2.25413 l -1.89832,3.34689 -2.20634,3.17737 2.20634,1.89649 h -4.73196 l -2.94982,2.93365 v 0.47773 0.12659 0.47772 l 2.94982,2.93365 h 8.86676 l -4.07653,4.05411 v 2.53669 l 1.84005,1.82995 h 2.25413 l 11.5505,-11.40182 v -0.19389 -0.22944 z" />
      <path
         id="path3533"
         style="fill:#787876;fill-opacity:1;stroke:none;stroke-width:0.0314121px;stroke-linecap:butt;stroke-linejoin:miter;stroke-opacity:1"
         d="m 309.25431,128.36464 -1.12787,-1.12169 h -4.53474 l -1.05275,1.04698 v 0.26407 0.47075 0.26401 l 1.05275,1.04698 h 4.53474 l 1.12787,-1.12162 v -0.25061 -0.34826 z" />
      <path
         id="path3535"
         style="fill:#787876;fill-opacity:1;stroke:none;stroke-width:0.0314121px;stroke-linecap:butt;stroke-linejoin:miter;stroke-opacity:1"
         d="m 315.29798,128.30768 -1.06931,-1.06344 h -5.14951 l 1.19972,1.19321 v 0.066 0.54222 0.066 l -1.19972,1.1932 h 5.14951 l 1.06931,-1.06343 v -0.18796 -0.55788 z" />
      <path
         id="path3537"
         style="fill:#787876;fill-opacity:1;stroke:none;stroke-width:0.0314121px;stroke-linecap:butt;stroke-linejoin:miter;stroke-opacity:1"
         d="m 320.59483,128.35142 -8.9164,-8.86751 h -1.66784 v 1.46419 l 4.19717,4.17416 v 1.11856 l 2.14211,2.1303 v 0.0557 0.65216 0.0557 l -2.14211,2.1303 v 1.11856 l -4.19717,4.17416 v 1.46419 h 1.66784 l 8.9164,-8.86751 v -0.12531 -0.55231 z" />
    </g>
  </g>
  <path
     id="path3603"
     style="fill:#e2e45e;fill-opacity:1;stroke:none;stroke-width:0.0314121px;stroke-linecap:butt;stroke-linejoin:miter;stroke-opacity:1"
     d="M 6.767289,3.7e-5 V 2.566808 L 8.973356,4.46333 H 4.241346 L 1.291655,7.397004 v 0.478007 0.126605 0.477491 l -5e-6,3.586607 11.816855,-0.652936 -4.076753,4.054017 5.566635,0.319569 -3.726437,4.047088 h 2.254126 l 12.079362,-6.531959 2e-6,-5.063715 V 8.008334 7.444544 L 17.135132,3.7e-5 Z"
     sodipodi:nodetypes="cccccccccccccccccccc" />
  <path
     id="path3605"
     style="fill:#787876;fill-opacity:1;stroke:none;stroke-width:0.0314121px;stroke-linecap:butt;stroke-linejoin:miter;stroke-opacity:1"
     d="M 11.04763,7.475931 9.91976,6.354241 H 5.38502 l -1.05275,1.04698 v 0.26407 0.47075 0.26401 l 1.05275,1.04698 h 4.53474 l 1.12787,-1.12162 v -0.25061 -0.34826 z" />
  <path
     id="path3607"
     style="fill:#787876;fill-opacity:1;stroke:none;stroke-width:0.0314121px;stroke-linecap:butt;stroke-linejoin:miter;stroke-opacity:1"
     d="m 17.0913,7.418971 -1.06931,-1.06344 h -5.14951 l 1.19972,1.19321 v 0.066 0.54222 0.066 l -1.19972,1.1932 h 5.14951 l 1.06931,-1.06343 v -0.18796 -0.55788 z" />
  <path
     id="path3609"
     style="fill:#787876;fill-opacity:1;stroke:none;stroke-width:0.0314121px;stroke-linecap:butt;stroke-linejoin:miter;stroke-opacity:1"
     d="m 11.803675,3.7e-5 v 0.05943 l 4.19716,4.173905 V 5.352168 L 18.14334,7.48227 v 0.05581 0.652155 0.05581 l -2.142505,2.130103 v 1.118795 l -4.19716,4.173906 1.304674,1.035632 0.363442,0.428876 8.916252,-8.867674 V 8.140109 7.588204 7.46263 L 14.884624,3.6e-5 Z" />
  <path
     id="path3615"
     style="fill:#e2e45e;fill-opacity:1;stroke:none;stroke-width:0.0314121px;stroke-linecap:butt;stroke-linejoin:miter;stroke-opacity:1"
     d="M 25.205667,12.73621 13.126,1.33439 H 10.87187 L 8.97355,5.04559 6.76721,4.8701 v 2.98855 l 2.20634,1.89649 -7.6819,0.31083 1.2e-4,2.62282 v 0.47773 0.12659 0.47772 l 2.94982,2.93365 h 8.86676 l -4.07653,4.05411 v 2.53669 l 1.84005,1.82995 H 13.126 L 25.205438,13.301493 Z"
     sodipodi:nodetypes="cccccccccccccccccccc" />
  <path
     id="path3617"
     style="fill:#787876;fill-opacity:1;stroke:none;stroke-width:0.0314121px;stroke-linecap:butt;stroke-linejoin:miter;stroke-opacity:1"
     d="M 11.04763,12.7676 9.91976,11.64591 H 5.38502 l -1.05275,1.04698 v 0.26407 0.47075 0.26401 l 1.05275,1.04698 h 4.53474 l 1.12787,-1.12162 v -0.25061 -0.34826 z" />
  <path
     id="path3619"
     style="fill:#787876;fill-opacity:1;stroke:none;stroke-width:0.0314121px;stroke-linecap:butt;stroke-linejoin:miter;stroke-opacity:1"
     d="M 17.0913,12.71064 16.02199,11.6472 h -5.14951 l 1.19972,1.19321 v 0.066 0.54222 0.066 l -1.19972,1.1932 h 5.14951 L 17.0913,13.6444 v -0.18796 -0.55788 z" />
  <path
     id="path3621"
     style="fill:#787876;fill-opacity:1;stroke:none;stroke-width:0.0314121px;stroke-linecap:butt;stroke-linejoin:miter;stroke-opacity:1"
     d="m 22.38815,12.75438 -8.9164,-8.86751 h -1.66784 v 1.46419 l 4.19717,4.17416 v 1.11856 l 2.14211,2.1303 v 0.0557 0.65216 0.0557 l -2.14211,2.1303 v 1.11856 l -4.19717,4.17416 v 1.46419 h 1.66784 l 8.9164,-8.86751 v -0.12531 -0.55231 z" />
  <path
     id="path5778"
     style="fill:#787876;fill-opacity:1;stroke:none;stroke-width:0.0314121px;stroke-linecap:butt;stroke-linejoin:miter;stroke-opacity:1"
     d="m 11.803676,-5.259316 v 0.05943 l 8.459435,8.173896 2.124932,0.03232 c 0,0 0,-0.529952 0,-0.803053 l -7.503418,-7.462594 z"
     sodipodi:nodetypes="ccccccc" />
</svg>
