<?xml version="1.0" encoding="UTF-8" standalone="no"?>
<svg
   xmlns:dc="http://purl.org/dc/elements/1.1/"
   xmlns:cc="http://creativecommons.org/ns#"
   xmlns:rdf="http://www.w3.org/1999/02/22-rdf-syntax-ns#"
   xmlns:svg="http://www.w3.org/2000/svg"
   xmlns="http://www.w3.org/2000/svg"
   xmlns:sodipodi="http://sodipodi.sourceforge.net/DTD/sodipodi-0.dtd"
   xmlns:inkscape="http://www.inkscape.org/namespaces/inkscape"
   width="26.458332mm"
   height="5.2913251mm"
   viewBox="0 0 26.458332 5.2913251"
   version="1.1"
   id="svg3745"
   sodipodi:docname="rightFreezeRepeatBody.svg"
   inkscape:version="1.0.2 (1.0.2+r75+1)">
  <sodipodi:namedview
     pagecolor="#ffffff"
     bordercolor="#666666"
     borderopacity="1"
     objecttolerance="10"
     gridtolerance="10"
     guidetolerance="10"
     inkscape:pageopacity="0"
     inkscape:pageshadow="2"
     inkscape:window-width="1260"
     inkscape:window-height="1032"
     id="namedview5797"
     showgrid="false"
     inkscape:zoom="8.8741905"
     inkscape:cx="85.176929"
     inkscape:cy="36.483352"
     inkscape:window-x="1280"
     inkscape:window-y="28"
     inkscape:window-maximized="0"
     inkscape:current-layer="svg3745" />
  <defs
     id="defs3739" />
  <metadata
     id="metadata3742">
    <rdf:RDF>
      <cc:Work
         rdf:about="">
        <dc:format>image/svg+xml</dc:format>
        <dc:type
           rdf:resource="http://purl.org/dc/dcmitype/StillImage" />
        <dc:title />
      </cc:Work>
    </rdf:RDF>
  </metadata>
  <rect
     style="fill:#000000;fill-opacity:1;stroke:none;stroke-width:9.9201;stroke-opacity:1"
     id="rect3716"
     width="26.458332"
     height="5.2913227"
     x="-26.45833"
     y="2.3315429e-06"
     transform="scale(-1,1)" />
  <path
     id="path2952"
     style="fill:#e2e45e;fill-opacity:1;stroke:none;stroke-width:0.0314121px;stroke-linecap:butt;stroke-linejoin:miter;stroke-opacity:1"
     d="M 25.205433,6.311523e-7 H 1.2916402 L 1.2916482,2.1047795 V 2.5827864 2.7093921 3.186883 l -8e-6,2.1044376 H 25.205433 Z"
     sodipodi:nodetypes="ccccccccc" />
  <path
     id="path2649"
     style="fill:#787876;fill-opacity:1;stroke:none;stroke-width:0.0314121px;stroke-linecap:butt;stroke-linejoin:miter;stroke-opacity:1"
     d="M 11.04742,2.18371 9.91955,1.06202 H 5.38481 L 4.33206,2.109 V 2.37307 2.84382 3.10783 L 5.38481,4.15481 H 9.91955 L 11.04742,3.03319 V 2.78258 2.43432 Z" />
  <path
     id="path2651"
     style="fill:#787876;fill-opacity:1;stroke:none;stroke-width:0.0314121px;stroke-linecap:butt;stroke-linejoin:miter;stroke-opacity:1"
     d="M 17.09109,2.12675 16.02178,1.06331 h -5.14951 l 1.19972,1.19321 v 0.066 0.54222 0.066 l -1.19972,1.1932 h 5.14951 L 17.09109,3.06051 V 2.87255 2.31467 Z" />
  <path
     id="path2964"
     style="fill:#787876;fill-opacity:1;stroke:none;stroke-width:3.3261;stroke-opacity:1"
     d="M 16.000828,-2.014681e-6 V 0.05994198 l 2.141976,2.13010222 v 0.055811 0.6521555 0.055811 L 16.000828,5.0839243 V 5.291146 h 4.056607 L 22.388044,2.9734595 V 2.8478856 2.2959807 2.1704068 L 20.205734,-2.014681e-6 Z" />
  <path
     id="path2733"
     style="fill:#787876;fill-opacity:1;stroke:none;stroke-width:0.0314121px;stroke-linecap:butt;stroke-linejoin:miter;stroke-opacity:1"
     d="M 11.04742,2.18371 9.91955,1.06202 H 5.38481 L 4.33206,2.109 V 2.37307 2.84382 3.10783 L 5.38481,4.15481 H 9.91955 L 11.04742,3.03319 V 2.78258 2.43432 Z" />
  <path
     id="path2735"
     style="fill:#787876;fill-opacity:1;stroke:none;stroke-width:0.0314121px;stroke-linecap:butt;stroke-linejoin:miter;stroke-opacity:1"
     d="M 17.09109,2.12675 16.02178,1.06331 h -5.14951 l 1.19972,1.19321 v 0.066 0.54222 0.066 l -1.19972,1.1932 h 5.14951 L 17.09109,3.06051 V 2.87255 2.31467 Z" />
  <path
     id="path2981"
     style="fill:#e2e45e;fill-opacity:1;stroke:none;stroke-width:0.0314121px;stroke-linecap:butt;stroke-linejoin:miter;stroke-opacity:1"
     d="M 17.135139,-2.014681e-6 H 6.7667663 V 2.5662499 L 8.9733489,4.4627726 H 4.2413396 L 3.4083148,5.291146 H 22.495518 Z" />
  <path
     id="path3039"
     style="fill:#787876;fill-opacity:1;stroke:none;stroke-width:0.0314121px;stroke-linecap:butt;stroke-linejoin:miter;stroke-opacity:1"
     d="M 14.885133,-2.014681e-6 H 11.803668 V 0.05890746 l 4.19716,4.17390524 1.134311,1.0585079 3.070092,-1.746e-4 z" />
  <path
     id="path3025"
     style="fill:#787876;fill-opacity:1;stroke:none;stroke-width:0.0314121px;stroke-linecap:butt;stroke-linejoin:miter;stroke-opacity:1"
     d="m 11.803668,5.291146 h 3.080949 L 13.471784,3.8860656 h -1.668116 z" />
</svg>
