<?xml version="1.0" encoding="UTF-8" standalone="no"?>
<svg
   xmlns:dc="http://purl.org/dc/elements/1.1/"
   xmlns:cc="http://creativecommons.org/ns#"
   xmlns:rdf="http://www.w3.org/1999/02/22-rdf-syntax-ns#"
   xmlns:svg="http://www.w3.org/2000/svg"
   xmlns="http://www.w3.org/2000/svg"
   xmlns:sodipodi="http://sodipodi.sourceforge.net/DTD/sodipodi-0.dtd"
   xmlns:inkscape="http://www.inkscape.org/namespaces/inkscape"
   width="100.00002"
   height="106.40632"
   viewBox="0 0 26.45834 28.153339"
   version="1.1"
   id="svg11335"
   inkscape:version="1.0.2 (1.0.2+r75+1)"
   sodipodi:docname="upFreezeTail.svg">
  <defs
     id="defs11329" />
  <sodipodi:namedview
     id="base"
     pagecolor="#ffffff"
     bordercolor="#666666"
     borderopacity="1.0"
     inkscape:pageopacity="0.0"
     inkscape:pageshadow="2"
     inkscape:zoom="0.98994949"
     inkscape:cx="-23.236063"
     inkscape:cy="-83.677829"
     inkscape:document-units="mm"
     inkscape:current-layer="layer1"
     inkscape:document-rotation="0"
     showgrid="false"
     inkscape:window-width="1260"
     inkscape:window-height="1032"
     inkscape:window-x="1280"
     inkscape:window-y="28"
     inkscape:window-maximized="1"
     units="px" />
  <metadata
     id="metadata11332">
    <rdf:RDF>
      <cc:Work
         rdf:about="">
        <dc:format>image/svg+xml</dc:format>
        <dc:type
           rdf:resource="http://purl.org/dc/dcmitype/StillImage" />
        <dc:title></dc:title>
      </cc:Work>
    </rdf:RDF>
  </metadata>
  <g
     inkscape:label="Layer 1"
     inkscape:groupmode="layer"
     id="layer1"
     transform="translate(-134.18155,-152.23285)">
    <path
       id="path10546"
       style="fill:#000000;fill-opacity:1;stroke:none;stroke-width:0.0314121px;stroke-linecap:butt;stroke-linejoin:miter;stroke-opacity:1"
       d="m 134.18155,152.23287 v 17.64957 l 2.70526,2.72077 h 3.36155 l 2.40399,-2.41794 v 6.03684 l 4.14135,4.16408 h 1.23404 l 4.14134,-4.16408 v -6.03684 l 2.40399,2.41794 h 3.36155 l 2.70527,-2.72077 v -17.64957 z" />
    <path
       id="path10548"
       style="fill:#e2e45e;fill-opacity:1;stroke:none;stroke-width:0.0314121px;stroke-linecap:butt;stroke-linejoin:miter;stroke-opacity:1"
       d="m 135.4347,152.23287 v 17.28112 l 1.83038,1.8402 h 2.53628 l 4.05454,-4.07676 v 8.86716 l 2.93315,2.94969 h 0.47801 0.12661 0.47749 l 2.93367,-2.94969 v -8.86716 l 4.05401,4.07676 h 2.5368 l 1.82986,-1.8402 v -17.28112 z" />
    <path
       id="path10550"
       style="fill:#787876;fill-opacity:1;stroke:none;stroke-width:0.0314121px;stroke-linecap:butt;stroke-linejoin:miter;stroke-opacity:1"
       d="m 147.79252,169.33833 1.12169,1.12787 v 4.53474 l -1.04698,1.05275 h -0.26407 -0.47075 -0.26401 l -1.04698,-1.05275 v -4.53474 l 1.12162,-1.12787 h 0.25061 0.34826 z" />
    <path
       id="path10552"
       style="fill:#787876;fill-opacity:1;stroke:none;stroke-width:0.0314121px;stroke-linecap:butt;stroke-linejoin:miter;stroke-opacity:1"
       d="m 147.84948,163.29466 1.06344,1.06931 v 5.14951 l -1.19321,-1.19972 h -0.066 -0.54221 -0.066 l -1.19321,1.19972 v -5.14951 l 1.06344,-1.06931 h 0.18796 0.55787 z" />
    <path
       id="path10554"
       style="fill:#787876;fill-opacity:1;stroke:none;stroke-width:0.0314121px;stroke-linecap:butt;stroke-linejoin:miter;stroke-opacity:1"
       d="m 147.80574,157.99781 8.86751,8.9164 v 1.66784 h -1.46419 l -4.17416,-4.19717 h -1.11856 l -2.1303,-2.14211 h -0.0557 -0.65216 -0.0557 l -2.13031,2.14211 h -1.11856 l -4.17416,4.19717 h -1.46419 v -1.66784 l 8.86752,-8.9164 h 0.1253 0.55231 z" />
    <path
       id="path10556"
       style="fill:#787876;fill-opacity:1;stroke:none;stroke-width:0.0314121px;stroke-linecap:butt;stroke-linejoin:miter;stroke-opacity:1"
       d="m 146.97935,152.23285 -8.86751,8.9164 v 1.66784 h 1.46419 l 7.83144,-7.9366 7.77816,7.9366 h 1.46419 v -1.66784 l -8.86751,-8.9164 z"
       sodipodi:nodetypes="cccccccccc" />
    <path
       id="path10558"
       style="fill:#787876;fill-opacity:1;stroke:none;stroke-width:0.0314121px;stroke-linecap:butt;stroke-linejoin:miter;stroke-opacity:1"
       d="m 141.19043,152.23287 -3.07837,3.09542 v 1.66812 h 1.46399 l 4.70049,-4.76354 z m 9.32708,0 4.66793,4.76354 h 1.46451 v -1.66812 l -3.07837,-3.09542 z" />
  </g>
</svg>
